<?xml version="1.0" encoding="utf-8"?>
<!-- Generator: Adobe Illustrator 22.1.0, SVG Export Plug-In . SVG Version: 6.00 Build 0)  -->
<svg version="1.1" id="Layer_1" xmlns="http://www.w3.org/2000/svg" xmlns:xlink="http://www.w3.org/1999/xlink" x="0px" y="0px"
	 viewBox="0 0 256 256" style="enable-background:new 0 0 256 256;" xml:space="preserve">
<style type="text/css">
	.st0{fill:#D73735;}
	.st1{fill:#F85252;}
	.st2{fill:#EDAF85;}
	.st3{fill:#F7C09A;}
	.st4{fill:#D8D6D7;}
	.st5{fill:#FFFFFF;}
	.st6{fill:#1C868E;}
	.st7{fill:#40C4DF;}
	.st8{fill:#491352;}
	.st9{fill:#56C1B3;}
	.st10{fill:#7BEFE4;}
</style>
<g>
	<rect x="114.17" y="147.42" class="st4" width="27.66" height="84.16"/>
	<rect x="131.09" y="147.42" class="st5" width="10.74" height="84.16"/>
	<path class="st4" d="M245.36,165.647H10.64c-2.761,0-5-2.239-5-5V7.75c0-2.761,2.239-5,5-5h234.72c2.761,0,5,2.239,5,5v152.897
		C250.36,163.408,248.121,165.647,245.36,165.647z"/>
	<path class="st9" d="M237.36,20.75v126.9c0,2.76-2.24,5-5,5H23.64c-2.76,0-5-2.24-5-5V20.75c0-2.76,2.24-5,5-5h208.72
		C235.12,15.75,237.36,17.99,237.36,20.75z"/>
	<path class="st10" d="M237.36,20.75v126.9c0,2.76-2.24,5-5,5H45.39c-2.76,0-5-2.24-5-5V20.75c0-2.76,2.24-5,5-5h186.97
		C235.12,15.75,237.36,17.99,237.36,20.75z"/>
	<path class="st4" d="M191.67,236.58v11.67c0,2.76-2.24,5-5,5H69.33c-2.76,0-5-2.24-5-5v-11.67c0-2.76,2.24-5,5-5h117.34
		C189.43,231.58,191.67,233.82,191.67,236.58z"/>
	<path class="st5" d="M191.67,236.58v11.67c0,2.76-2.24,5-5,5H85.33c-2.76,0-5-2.24-5-5v-11.67c0-2.76,2.24-5,5-5h101.34
		C189.43,231.58,191.67,233.82,191.67,236.58z"/>
	<circle class="st1" cx="128" cy="84.198" r="10.9"/>
	<g>
		<path class="st8" d="M245.36,0.75H10.64c-3.859,0-7,3.14-7,7v152.896c0,3.86,3.141,7,7,7h101.53v61.932H69.333
			c-3.859,0-7,3.14-7,7v11.671c0,3.86,3.141,7,7,7h117.334c3.859,0,7-3.14,7-7v-11.671c0-3.86-3.141-7-7-7H143.83v-61.932h101.53
			c3.859,0,7-3.14,7-7V7.75C252.36,3.89,249.22,0.75,245.36,0.75z M186.667,233.579c1.654,0,3,1.346,3,3v11.671c0,1.654-1.346,3-3,3
			H69.333c-1.654,0-3-1.346-3-3v-11.671c0-1.654,1.346-3,3-3C79.475,233.579,173.434,233.579,186.667,233.579z M116.17,229.579
			v-61.932h23.66v61.932H116.17z M248.36,160.646c0,1.654-1.346,3-3,3H10.64c-1.654,0-3-1.346-3-3V7.75c0-1.654,1.346-3,3-3H245.36
			c1.654,0,3,1.346,3,3V160.646z"/>
		<path class="st8" d="M232.36,13.75H23.641c-3.859,0-7,3.14-7,7v126.896c0,3.86,3.141,7,7,7h208.72c3.859,0,7-3.14,7-7V20.75
			C239.36,16.89,236.22,13.75,232.36,13.75z M235.36,147.646c0,1.654-1.346,3-3,3H23.641c-1.654,0-3-1.346-3-3V20.75
			c0-1.654,1.346-3,3-3h208.72c1.654,0,3,1.346,3,3V147.646z"/>
		<path class="st8" d="M149.319,46.607c-10.524-32.392-32.088-32.447-42.632-0.018c-33.75-7.734-44.513,11.47-20.974,37.609
			c-23.462,26.054-12.916,45.375,20.974,37.609c10.531,32.39,32.095,32.416,42.632-0.018c34.019,7.817,44.352-11.624,20.969-37.591
			C193.654,58.251,183.367,38.784,149.319,46.607z M167.517,81.245c-3.901-3.967-8.468-7.924-13.588-11.74
			c-0.699-6.9-1.881-13.316-3.464-19.058C180.436,43.669,187.844,58.612,167.517,81.245z M154.375,74.927
			c3.833,3.041,7.312,6.16,10.367,9.271c-3.055,3.111-6.534,6.23-10.367,9.271C154.758,87.311,154.758,81.096,154.375,74.927z
			 M149.506,66.335c-5.379-3.694-10.977-7.02-16.795-9.98c4.719-2.031,9.368-3.693,13.834-4.928
			C147.798,55.986,148.803,61,149.506,66.335z M145.404,47.594c-5.603,1.557-11.467,3.745-17.39,6.477
			c-6.029-2.787-11.893-4.951-17.416-6.484C119.813,19.242,136.187,19.233,145.404,47.594z M109.445,51.464
			c4.407,1.227,9.056,2.865,13.826,4.908c-5.746,2.919-11.304,6.206-16.777,9.964C107.195,61.015,108.196,56.013,109.445,51.464z
			 M105.532,50.458c-1.582,5.74-2.763,12.151-3.461,19.047c-5.12,3.816-9.687,7.773-13.588,11.74
			C68.097,58.546,75.679,43.615,105.532,50.458z M101.625,93.469c-3.833-3.041-7.312-6.16-10.367-9.271
			c3.055-3.111,6.534-6.229,10.367-9.271C101.242,81.086,101.242,87.3,101.625,93.469z M88.484,87.152
			c3.901,3.967,8.468,7.923,13.588,11.74c0.698,6.896,1.88,13.308,3.461,19.048C75.921,124.726,67.939,110.026,88.484,87.152z
			 M106.494,102.061c5.47,3.756,11.029,7.043,16.773,9.962c-4.766,2.041-9.417,3.688-13.821,4.915
			C108.197,112.388,107.196,107.383,106.494,102.061z M110.597,120.807c5.523-1.533,11.385-3.695,17.414-6.482
			c5.924,2.732,11.789,4.921,17.393,6.478C136.191,149.152,119.816,149.167,110.597,120.807z M146.545,116.969
			c-4.468-1.236-9.118-2.899-13.84-4.931c5.745-2.922,11.277-6.184,16.801-9.977C148.803,107.396,147.798,112.411,146.545,116.969z
			 M127.982,109.891c-7.456-3.57-14.908-7.946-22.079-13.171c-0.741-8.204-0.766-16.559,0-25.044
			c7.179-5.231,14.636-9.607,22.074-13.169c7.792,3.71,15.134,8.078,22.12,13.168c0.741,8.205,0.766,16.56,0,25.045
			C143.29,101.681,135.917,106.112,127.982,109.891z M150.465,117.95c1.583-5.743,2.766-12.158,3.464-19.058
			c5.12-3.816,9.687-7.773,13.588-11.74C187.883,109.828,180.38,124.714,150.465,117.95z"/>
		<path class="st8" d="M128,71.298c-7.112,0-12.899,5.787-12.899,12.9s5.787,12.9,12.899,12.9c7.113,0,12.9-5.787,12.9-12.9
			S135.113,71.298,128,71.298z M128,93.098c-4.907,0-8.899-3.993-8.899-8.9s3.992-8.9,8.899-8.9s8.9,3.993,8.9,8.9
			S132.907,93.098,128,93.098z"/>
	</g>
</g>
</svg>
